<svg xmlns="http://www.w3.org/2000/svg" width="180" height="57" viewBox="0 0 180 57" fill="none"><mask id="mask0_26004_40" style="mask-type:luminance" maskUnits="userSpaceOnUse" x="0" y="20" width="36" height="37"><path d="M22.3068 22.3034L20.109 24.4999C17.6511 26.9598 16.2966 30.228 16.2961 33.705V43.0639C16.2961 45.6857 15.2756 48.1506 13.4217 50.0054L11.2247 52.2009C10.054 53.3724 8.15626 53.3724 6.9843 52.2009L4.08147 49.2976C2.91001 48.1266 2.91001 46.2281 4.08147 45.0577L7.0504 42.0883C9.09602 40.0424 9.09602 36.727 7.0504 34.6821L4.08022 31.7122C2.91001 30.5423 2.91001 28.6438 4.08022 27.4723L6.9843 24.568C8.15626 23.3975 10.054 23.3975 11.2247 24.568L12.9284 26.2714C13.5542 26.8979 14.568 26.8979 15.1933 26.2714C15.818 25.6459 15.818 24.6328 15.1933 24.0073L13.4896 22.3034C11.0678 19.8819 7.14193 19.8819 4.72069 22.3034L1.81611 25.2085C-0.605371 27.6294 -0.605371 31.5546 1.81611 33.9766L4.78554 36.946C5.58065 37.7401 5.58065 39.0285 4.78554 39.8229L1.81611 42.7928C-0.605371 45.2138 -0.605371 49.1395 1.81611 51.5614L4.72069 54.4658C7.14193 56.8863 11.0678 56.8863 13.4896 54.4658L15.6853 52.2693C18.145 49.8104 19.4995 46.5407 19.4985 43.0632V33.7055C19.4995 31.0837 20.5203 28.6188 22.3739 26.764L24.5709 24.5675C25.7421 23.397 27.6401 23.397 28.8101 24.5675L31.7144 27.4718C32.8856 28.6433 32.8856 30.5413 31.7144 31.7117L28.7452 34.6816C26.7006 36.7265 26.7006 40.0419 28.7452 42.0873L31.7144 45.0572C32.8856 46.2276 32.8856 48.1261 31.7144 49.2971L28.8101 52.2009C27.6401 53.3719 25.7416 53.3719 24.5709 52.2009L22.8685 50.4985C22.2437 49.8735 21.2291 49.8735 20.6041 50.4985C19.9791 51.124 19.9791 52.1381 20.6041 52.7626L22.3068 54.4655C24.728 56.887 28.6539 56.887 31.0752 54.4655L33.9793 51.5612C36.4005 49.1392 36.4005 45.2136 33.9793 42.7926L31.0088 39.8227C30.214 39.028 30.214 37.7396 31.0088 36.9458L33.9793 33.9763C36.4005 31.5543 36.4005 27.6282 33.9793 25.2072L31.0757 22.3029C29.8646 21.092 28.2773 20.487 26.6909 20.487C25.1034 20.4875 23.5169 21.0923 22.3068 22.3034Z" fill="white"></path></mask><g mask="url(#mask0_26004_40)"><path d="M36.4005 19.8819H-0.605118V56.8875H36.4005V19.8819Z" fill="url(#paint0_linear_26004_40)"></path></g><mask id="mask1_26004_40" style="mask-type:luminance" maskUnits="userSpaceOnUse" x="8" y="0" width="20" height="19"><path d="M11.52 9.21206C11.52 5.69594 14.3807 2.83525 17.8976 2.83525C21.4152 2.83525 24.2756 5.69619 24.2756 9.21206C24.2756 12.7297 21.4149 15.5909 17.8976 15.5909C14.3807 15.5909 11.52 12.7294 11.52 9.21206ZM8.68552 9.21206C8.68552 14.2927 12.8174 18.4254 17.8978 18.4254C22.9782 18.4254 27.1106 14.2927 27.1106 9.21206C27.1106 4.13291 22.978 0 17.8978 0C12.8177 0 8.68552 4.13266 8.68552 9.21206Z" fill="white"></path></mask><g mask="url(#mask1_26004_40)"><path d="M27.1106 0H8.68552V18.4254H27.1106V0Z" fill="url(#paint1_linear_26004_40)"></path></g><path d="M64.2217 44.4848C67.165 46.7065 66.3841 51.3904 62.9011 52.5317C61.4603 53.0125 60.0779 53.3125 58.8176 53.3125C54.7949 53.3125 51.2514 51.6914 48.6097 49.1088C46.0273 46.4671 44.4059 42.9238 44.4059 38.9006C44.4059 31.0346 50.8917 24.5495 58.7572 24.5495C62.7814 24.5495 66.3841 26.1712 68.9664 28.7533C71.5488 31.3351 73.1697 34.9378 73.1697 38.9006V38.961C73.1697 40.1616 72.1491 41.1228 70.9485 41.1228H67.1652H65.4837H51.3723C51.7322 42.3836 52.3929 43.5244 53.294 44.4245C54.7346 45.8064 56.6565 46.6467 58.8179 46.6467C60.9191 46.6467 62.7812 45.8064 64.2217 44.4848ZM51.3718 36.7393H66.2035C65.8429 35.478 65.1829 34.3372 64.2826 33.4361C62.8418 32.0552 60.9193 31.1546 58.8176 31.1546C56.6563 31.1546 54.7343 32.0552 53.2938 33.4361C52.3924 34.3372 51.732 35.478 51.3718 36.7393Z" fill="#1E302C"></path><path d="M104.936 38.9006V53.3125C101.273 53.3125 98.331 50.3698 98.331 46.6467V38.9004C98.331 36.7984 97.4304 34.8767 96.0492 33.4364C94.6074 32.0549 92.6862 31.1548 90.5844 31.1548C88.4223 31.1548 86.5012 32.0549 85.0603 33.4364C83.6791 34.8767 82.8391 36.7984 82.8391 38.9004V46.6467C82.8391 50.3698 79.8365 53.3125 76.1733 53.3125V38.9006C76.1733 33.8569 78.815 29.3531 82.8391 26.8321C85.0603 25.3903 87.7031 24.5495 90.5847 24.5495C93.4065 24.5495 96.0494 25.3903 98.3315 26.8321C99.1717 27.3718 100.013 28.0325 100.733 28.7528C103.315 31.3346 104.936 34.9368 104.936 38.9006Z" fill="#1E302C"></path><path d="M136.704 38.9006V53.3125H132.32C131.059 53.3125 130.098 52.291 130.098 51.0305C127.817 52.4708 125.174 53.3125 122.352 53.3125C118.328 53.3125 114.786 51.6909 112.143 49.1088C109.562 46.4671 107.939 42.9233 107.939 38.9006C107.939 31.0346 114.424 24.5495 122.291 24.5495C126.314 24.5495 129.918 26.1712 132.499 28.7533C134.842 31.0945 136.402 34.2766 136.643 37.8202C136.704 38.1801 136.704 38.5405 136.704 38.9006ZM130.097 39.0807C130.097 36.859 129.257 34.8769 127.816 33.4359C126.374 32.0549 124.452 31.1543 122.352 31.1543C120.189 31.1543 118.268 32.0549 116.826 33.4359C115.446 34.8767 114.605 36.7984 114.605 38.9004C114.605 41.0622 115.446 42.9839 116.826 44.4247C118.268 45.866 120.25 46.7063 122.472 46.6464C126.614 46.5868 129.977 43.2243 130.097 39.0807Z" fill="#1E302C"></path><path d="M164.807 48.5085C162.165 51.4507 158.321 53.3125 154.119 53.3125C146.132 53.3125 139.706 46.8868 139.706 38.9006C139.706 30.9747 146.132 24.5495 154.119 24.5495C158.322 24.5495 162.165 26.4109 164.807 29.3531C167.389 32.1754 165.347 36.7388 161.504 36.7388C160.543 33.496 157.601 31.1548 154.119 31.1548C149.795 31.1548 146.372 34.6368 146.372 38.9006C146.372 43.2243 149.795 46.6469 154.119 46.6469C157.601 46.6469 160.543 44.3653 161.504 41.1226C165.347 41.1223 167.389 45.6867 164.807 48.5085Z" fill="#1E302C"></path><path d="M175.616 37.8202V41.1223C175.616 41.5428 175.616 41.9027 175.677 42.2636C175.916 43.3445 176.458 44.3047 177.239 45.0255C177.959 45.8064 178.92 46.3466 180 46.5868V53.2517C177.117 53.013 174.476 51.6909 172.494 49.7687C170.332 47.5475 168.951 44.4848 168.951 41.1223V11.2794H172.254C174.115 11.2794 175.616 12.7803 175.616 14.5815V17.8842V23.4085V24.5493H180V31.1546H175.616V35.5975V37.8202Z" fill="#1E302C"></path><defs><linearGradient id="paint0_linear_26004_40" x1="0.00718595" y1="38.4004" x2="35.8083" y2="38.4004" gradientUnits="userSpaceOnUse"><stop stop-color="#70AC81"></stop><stop offset="1" stop-color="#95B847"></stop></linearGradient><linearGradient id="paint1_linear_26004_40" x1="8.69016" y1="9.20399" x2="27.1169" y2="9.20399" gradientUnits="userSpaceOnUse"><stop stop-color="#70AC81"></stop><stop offset="1" stop-color="#95B847"></stop></linearGradient></defs></svg>