<?xml version="1.0" encoding="UTF-8" standalone="no"?>
<svg
   width="461.33334"
   zoomAndPan="magnify"
   viewBox="0 0 346.00001 147.60749"
   height="196.81"
   preserveAspectRatio="xMidYMid"
   version="1.0"
   sodipodi:docname="logo.svg"
   inkscape:version="1.3.2 (091e20e, 2023-11-25, custom)"
   xmlns:inkscape="http://www.inkscape.org/namespaces/inkscape"
   xmlns:sodipodi="http://sodipodi.sourceforge.net/DTD/sodipodi-0.dtd"
   xmlns="http://www.w3.org/2000/svg"
   xmlns:svg="http://www.w3.org/2000/svg">
  <defs
     />
  <sodipodi:namedview
     pagecolor="#ffffff"
     bordercolor="#000000"
     borderopacity="0.25"
     inkscape:showpageshadow="2"
     inkscape:pageopacity="0.0"
     inkscape:pagecheckerboard="true"
     inkscape:deskcolor="#d1d1d1"
     inkscape:zoom="1.6614965"
     inkscape:cx="279.86817"
     inkscape:cy="96.59966"
     inkscape:window-width="1920"
     inkscape:window-height="991"
     inkscape:window-x="2391"
     inkscape:window-y="-9"
     inkscape:window-maximized="1"
     inkscape:current-layer="svg148" />
  <path
     d="m 3.796875,0.1875 c -0.96875,0 -1.679687,-0.2421875 -2.125,-0.734375 C 1.222656,-1.035156 1,-1.742188 1,-2.671875 v -3.75 h 1.140625 v 3.640625 c 0,0.5 0.085937,0.902344 0.265625,1.203125 0.175781,0.292969 0.40625,0.5 0.6875,0.625 0.289062,0.125 0.597656,0.1875 0.921875,0.1875 0.5625,0 1.019531,-0.117187 1.375,-0.359375 0.351563,-0.238281 0.617187,-0.539062 0.796875,-0.90625 0.175781,-0.375 0.265625,-0.769531 0.265625,-1.1875 V -6.421875 H 7.59375 V 0 H 6.5 v -1.4375 c -0.21875,0.5 -0.570312,0.898438 -1.046875,1.1875 -0.480469,0.2890625 -1.03125,0.4375 -1.65625,0.4375 z m 0,0"
     transform="translate(78.111088,127.65449)"
     style="fill:#4046c0;fill-opacity:1" />
  <path
     d="M 2.375,0 H 1.25 v -6.421875 h 1.09375 v 1.40625 c 0.53125,-1.0625 1.460938,-1.59375 2.796875,-1.59375 0.914063,0 1.613281,0.25 2.09375,0.75 0.476563,0.5 0.71875,1.242187 0.71875,2.21875 V 0 H 6.8125 v -3.484375 c 0,-1.4375 -0.679688,-2.15625 -2.03125,-2.15625 -0.730469,0 -1.3125,0.226563 -1.75,0.671875 -0.4375,0.449219 -0.65625,1.054688 -0.65625,1.8125 z m 0,0"
     transform="translate(86.934688,127.65449)"
     style="fill:#4046c0;fill-opacity:1" />
  <path
     d="m 3.859375,0.1875 c -0.648437,0 -1.21875,-0.140625 -1.71875,-0.421875 C 1.648438,-0.523438 1.257812,-0.925781 0.96875,-1.4375 0.6875,-1.945312 0.546875,-2.539062 0.546875,-3.21875 c 0,-0.664062 0.140625,-1.25 0.421875,-1.75 0.289062,-0.507812 0.691406,-0.910156 1.203125,-1.203125 0.519531,-0.289063 1.113281,-0.4375 1.78125,-0.4375 1.195313,0 2.082031,0.421875 2.65625,1.265625 V -9.3125 h 1.125 V 0 H 6.640625 V -1.25 C 6.085938,-0.289062 5.160156,0.1875 3.859375,0.1875 Z M 4.15625,-0.796875 c 0.488281,0 0.921875,-0.09375 1.296875,-0.28125 0.375,-0.1875 0.660156,-0.445313 0.859375,-0.78125 0.207031,-0.34375 0.3125,-0.738281 0.3125,-1.1875 V -3.34375 C 6.625,-4.03125 6.390625,-4.582031 5.921875,-5 5.460938,-5.425781 4.859375,-5.640625 4.109375,-5.640625 3.378906,-5.640625 2.800781,-5.425781 2.375,-5 1.957031,-4.570312 1.75,-3.976562 1.75,-3.21875 c 0,0.761719 0.210938,1.355469 0.640625,1.78125 0.4375,0.429688 1.023437,0.640625 1.765625,0.640625 z m 0,0"
     transform="translate(95.886718,127.65449)"
     style="fill:#4046c0;fill-opacity:1" />
  <path
     d="M 2.46875,-7.609375 H 1.140625 V -9.03125 H 2.46875 Z M 2.375,0 H 1.25 v -6.421875 h 1.125 z m 0,0"
     transform="translate(104.86445,127.65449)"
     style="fill:#4046c0;fill-opacity:1" />
  <path
     d="M 2.375,0 H 1.25 v -6.421875 h 1.09375 v 1.40625 c 0.53125,-1.0625 1.460938,-1.59375 2.796875,-1.59375 0.914063,0 1.613281,0.25 2.09375,0.75 0.476563,0.5 0.71875,1.242187 0.71875,2.21875 V 0 H 6.8125 v -3.484375 c 0,-1.4375 -0.679688,-2.15625 -2.03125,-2.15625 -0.730469,0 -1.3125,0.226563 -1.75,0.671875 -0.4375,0.449219 -0.65625,1.054688 -0.65625,1.8125 z m 0,0"
     transform="translate(108.48637,127.65449)"
     style="fill:#4046c0;fill-opacity:1" />
  <path
     d="m 7.375,-6.5 c -0.542969,0 -0.890625,0.183594 -1.046875,0.546875 0.476563,0.40625 0.71875,0.929687 0.71875,1.5625 0,0.648437 -0.265625,1.183594 -0.796875,1.609375 -0.523438,0.417969 -1.242188,0.625 -2.15625,0.625 -0.636719,0 -1.171875,-0.097656 -1.609375,-0.296875 -0.1875,0.0625 -0.335937,0.148437 -0.4375,0.25 -0.105469,0.105469 -0.15625,0.234375 -0.15625,0.390625 0,0.1875 0.082031,0.34375 0.25,0.46875 0.164063,0.117188 0.445313,0.171875 0.84375,0.171875 h 2.53125 c 0.757813,0 1.328125,0.15625 1.703125,0.46875 0.382812,0.304687 0.578125,0.7382812 0.578125,1.3125 0,0.65625 -0.304687,1.164063 -0.90625,1.53125 -0.59375,0.375 -1.542969,0.5625 -2.84375,0.5625 C 3.203125,2.703125 2.519531,2.625 2,2.46875 1.488281,2.320312 1.117188,2.113281 0.890625,1.84375 0.660156,1.570312 0.546875,1.265625 0.546875,0.921875 c 0,-0.304687 0.085937,-0.574219 0.265625,-0.8125 0.175781,-0.226563 0.445312,-0.394531 0.8125,-0.5 C 1.351562,-0.503906 1.15625,-0.65625 1.03125,-0.84375 c -0.125,-0.1875 -0.1875,-0.398438 -0.1875,-0.640625 0,-0.332031 0.097656,-0.601563 0.296875,-0.8125 0.195313,-0.21875 0.457031,-0.378906 0.78125,-0.484375 C 1.390625,-3.1875 1.125,-3.722656 1.125,-4.390625 c 0,-0.65625 0.265625,-1.1875 0.796875,-1.59375 0.53125,-0.414063 1.253906,-0.625 2.171875,-0.625 0.632812,0 1.1875,0.105469 1.65625,0.3125 0.09375,-0.34375 0.28125,-0.625 0.5625,-0.84375 0.28125,-0.21875 0.648438,-0.328125 1.109375,-0.328125 0.144531,0 0.300781,0.015625 0.46875,0.046875 v 0.96875 C 7.753906,-6.484375 7.582031,-6.5 7.375,-6.5 Z M 4.09375,-3 c 0.570312,0 1.023438,-0.125 1.359375,-0.375 0.332031,-0.257812 0.5,-0.597656 0.5,-1.015625 0,-0.414063 -0.167969,-0.75 -0.5,-1 -0.335937,-0.25 -0.789063,-0.375 -1.359375,-0.375 -0.574219,0 -1.027344,0.125 -1.359375,0.375 -0.324219,0.242187 -0.484375,0.574219 -0.484375,1 0,0.40625 0.160156,0.742187 0.484375,1 C 3.066406,-3.128906 3.519531,-3 4.09375,-3 Z m 1.203125,2.8125 H 2.9375 c -0.210938,0 -0.414062,-0.007812 -0.609375,-0.03125 C 2.085938,-0.113281 1.910156,0.0195312 1.796875,0.1875 1.679688,0.351562 1.625,0.535156 1.625,0.734375 c 0,0.382813 0.210938,0.65625 0.640625,0.8125 0.4375,0.15625 1.050781,0.234375 1.84375,0.234375 0.957031,0 1.625,-0.101562 2,-0.296875 0.375,-0.199219 0.5625,-0.464844 0.5625,-0.796875 0,-0.585938 -0.460937,-0.875 -1.375,-0.875 z m 0,0"
     style="display:inline;fill:#4046c0;fill-opacity:1"
     transform="translate(117.43841,127.65449)" />
  <path
     d="m 2.296875,-6.421875 v 1.625 c 0.175781,-0.53125 0.460937,-0.960937 0.859375,-1.296875 0.40625,-0.332031 0.894531,-0.5 1.46875,-0.5 0.09375,0 0.175781,0.00781 0.25,0.015625 0.082031,0 0.160156,0.011719 0.234375,0.03125 v 1.09375 c -0.0625,-0.00781 -0.125,-0.015625 -0.1875,-0.015625 -0.0625,0 -0.132813,0 -0.203125,0 -0.40625,0 -0.746094,0.054688 -1.015625,0.15625 C 3.441406,-5.207031 3.21875,-5.054688 3.03125,-4.859375 2.75,-4.566406 2.566406,-4.222656 2.484375,-3.828125 2.410156,-3.429688 2.375,-3.023438 2.375,-2.609375 V 0 H 1.25 v -6.421875 z m 0,0"
     transform="translate(129.90961,127.65449)"
     style="fill:#4046c0;fill-opacity:1" />
  <path
     d="M 7.625,-3.515625 V -2.875 H 1.703125 c 0.00781,0.648438 0.238281,1.15625 0.6875,1.53125 0.445313,0.375 1.054687,0.5625 1.828125,0.5625 1.15625,0 1.953125,-0.425781 2.390625,-1.28125 l 0.9375,0.4375 c -0.625,1.210938 -1.75,1.8125 -3.375,1.8125 -1.125,0 -2.011719,-0.2851562 -2.65625,-0.859375 -0.648437,-0.582031 -0.96875,-1.40625 -0.96875,-2.46875 0,-0.738281 0.144531,-1.367187 0.4375,-1.890625 0.289063,-0.519531 0.707031,-0.910156 1.25,-1.171875 0.539063,-0.269531 1.171875,-0.40625 1.890625,-0.40625 1.09375,0 1.945312,0.265625 2.5625,0.796875 0.625,0.53125 0.9375,1.296875 0.9375,2.296875 z m -5.921875,-0.25 h 4.75 v -0.09375 c 0,-0.613281 -0.21875,-1.082031 -0.65625,-1.40625 -0.4375,-0.320313 -1,-0.484375 -1.6875,-0.484375 -0.71875,0 -1.292969,0.179688 -1.71875,0.53125 -0.429687,0.355469 -0.65625,0.839844 -0.6875,1.453125 z m 0,0"
     transform="translate(135.27826,127.65449)"
     style="fill:#4046c0;fill-opacity:1" />
  <path
     d="m 4.125,0.1875 c -0.9375,0 -1.699219,-0.1679688 -2.28125,-0.5 C 1.257812,-0.644531 0.859375,-1.117188 0.640625,-1.734375 l 1.0625,-0.328125 c 0.164063,0.429688 0.457031,0.757812 0.875,0.984375 0.425781,0.230469 0.972656,0.34375 1.640625,0.34375 0.582031,0 1.019531,-0.085937 1.3125,-0.265625 C 5.832031,-1.1875 5.984375,-1.441406 5.984375,-1.765625 5.984375,-2.046875 5.894531,-2.25 5.71875,-2.375 5.539062,-2.5 5.257812,-2.585938 4.875,-2.640625 l -2.03125,-0.21875 c -0.625,-0.09375 -1.109375,-0.285156 -1.453125,-0.578125 -0.335937,-0.289062 -0.5,-0.695312 -0.5,-1.21875 0,-0.570312 0.257813,-1.039062 0.78125,-1.40625 0.519531,-0.363281 1.234375,-0.546875 2.140625,-0.546875 0.894531,0 1.625,0.148437 2.1875,0.4375 0.5625,0.292969 0.925781,0.703125 1.09375,1.234375 l -1.0625,0.359375 c -0.167969,-0.363281 -0.433594,-0.644531 -0.796875,-0.84375 -0.367187,-0.195313 -0.867187,-0.296875 -1.5,-0.296875 -1.167969,0 -1.75,0.339844 -1.75,1.015625 0,0.273437 0.097656,0.476563 0.296875,0.609375 0.195312,0.136719 0.484375,0.226562 0.859375,0.265625 L 5.15625,-3.59375 c 0.6875,0.09375 1.179688,0.289062 1.484375,0.578125 0.3125,0.28125 0.46875,0.671875 0.46875,1.171875 C 7.109375,-1.25 6.863281,-0.757812 6.375,-0.375 5.894531,0 5.144531,0.1875 4.125,0.1875 Z m 0,0"
     transform="translate(143.53674,127.65449)"
     style="fill:#4046c0;fill-opacity:1" />
  <path
     d="M 7.625,-3.515625 V -2.875 H 1.703125 c 0.00781,0.648438 0.238281,1.15625 0.6875,1.53125 0.445313,0.375 1.054687,0.5625 1.828125,0.5625 1.15625,0 1.953125,-0.425781 2.390625,-1.28125 l 0.9375,0.4375 c -0.625,1.210938 -1.75,1.8125 -3.375,1.8125 -1.125,0 -2.011719,-0.2851562 -2.65625,-0.859375 -0.648437,-0.582031 -0.96875,-1.40625 -0.96875,-2.46875 0,-0.738281 0.144531,-1.367187 0.4375,-1.890625 0.289063,-0.519531 0.707031,-0.910156 1.25,-1.171875 0.539063,-0.269531 1.171875,-0.40625 1.890625,-0.40625 1.09375,0 1.945312,0.265625 2.5625,0.796875 0.625,0.53125 0.9375,1.296875 0.9375,2.296875 z m -5.921875,-0.25 h 4.75 v -0.09375 c 0,-0.613281 -0.21875,-1.082031 -0.65625,-1.40625 -0.4375,-0.320313 -1,-0.484375 -1.6875,-0.484375 -0.71875,0 -1.292969,0.179688 -1.71875,0.53125 -0.429687,0.355469 -0.65625,0.839844 -0.6875,1.453125 z m 0,0"
     transform="translate(151.33284,127.65449)"
     style="fill:#4046c0;fill-opacity:1" />
  <path
     d="m 3.25,0.1875 c -0.792969,0 -1.429688,-0.1679688 -1.90625,-0.5 C 0.875,-0.65625 0.640625,-1.117188 0.640625,-1.703125 c 0,-0.644531 0.265625,-1.132813 0.796875,-1.46875 C 1.675781,-3.316406 1.96875,-3.4375 2.3125,-3.53125 2.664062,-3.625 3.171875,-3.703125 3.828125,-3.765625 L 6.21875,-3.9375 v -0.125 c 0,-1.09375 -0.667969,-1.640625 -2,-1.640625 -0.625,0 -1.121094,0.117187 -1.484375,0.34375 -0.367187,0.230469 -0.578125,0.5625 -0.640625,1 H 0.859375 c 0.070313,-0.675781 0.410156,-1.21875 1.015625,-1.625 0.601562,-0.414063 1.382812,-0.625 2.34375,-0.625 1.0625,0 1.847656,0.21875 2.359375,0.65625 0.519531,0.4375 0.78125,1.109375 0.78125,2.015625 v 1.703125 c 0,0.554687 0.015625,0.992187 0.046875,1.3125 C 7.4375,-0.597656 7.484375,-0.289062 7.546875,0 H 6.375 C 6.332031,-0.1875 6.304688,-0.382812 6.296875,-0.59375 6.285156,-0.800781 6.273438,-1.019531 6.265625,-1.25 6.023438,-0.78125 5.648438,-0.421875 5.140625,-0.171875 4.640625,0.0664062 4.007812,0.1875 3.25,0.1875 Z m 0.3125,-0.890625 c 0.53125,0 0.992188,-0.082031 1.390625,-0.25 0.394531,-0.175781 0.707031,-0.421875 0.9375,-0.734375 0.226563,-0.320312 0.34375,-0.695312 0.34375,-1.125 v -0.328125 l -2.609375,0.25 c -0.65625,0.074219 -1.121094,0.199219 -1.390625,0.375 -0.261719,0.179687 -0.390625,0.4375 -0.390625,0.78125 0,0.324219 0.144531,0.578125 0.4375,0.765625 0.300781,0.179688 0.726562,0.265625 1.28125,0.265625 z m 0,0"
     transform="translate(159.59132,127.65449)"
     style="fill:#4046c0;fill-opacity:1" />
  <path
     d="m 2.296875,-6.421875 v 1.625 c 0.175781,-0.53125 0.460937,-0.960937 0.859375,-1.296875 0.40625,-0.332031 0.894531,-0.5 1.46875,-0.5 0.09375,0 0.175781,0.00781 0.25,0.015625 0.082031,0 0.160156,0.011719 0.234375,0.03125 v 1.09375 c -0.0625,-0.00781 -0.125,-0.015625 -0.1875,-0.015625 -0.0625,0 -0.132813,0 -0.203125,0 -0.40625,0 -0.746094,0.054688 -1.015625,0.15625 C 3.441406,-5.207031 3.21875,-5.054688 3.03125,-4.859375 2.75,-4.566406 2.566406,-4.222656 2.484375,-3.828125 2.410156,-3.429688 2.375,-3.023438 2.375,-2.609375 V 0 H 1.25 v -6.421875 z m 0,0"
     transform="translate(168.00392,127.65449)"
     style="fill:#4046c0;fill-opacity:1" />
  <path
     d="M 4.15625,0.1875 C 3.425781,0.1875 2.789062,0.0507812 2.25,-0.21875 1.707031,-0.5 1.285156,-0.894531 0.984375,-1.40625 c -0.292969,-0.519531 -0.4375,-1.125 -0.4375,-1.8125 0,-0.695312 0.144531,-1.296875 0.4375,-1.796875 C 1.285156,-5.523438 1.707031,-5.914062 2.25,-6.1875 c 0.539062,-0.28125 1.1875,-0.421875 1.9375,-0.421875 0.9375,0 1.6875,0.203125 2.25,0.609375 0.570312,0.398438 0.9375,0.984375 1.09375,1.765625 L 6.328125,-4.09375 C 6.109375,-5.125 5.382812,-5.640625 4.15625,-5.640625 3.394531,-5.640625 2.800781,-5.425781 2.375,-5 1.957031,-4.570312 1.75,-3.976562 1.75,-3.21875 c 0,0.773438 0.210938,1.371094 0.640625,1.796875 0.4375,0.429687 1.03125,0.640625 1.78125,0.640625 1.175781,0 1.914063,-0.507812 2.21875,-1.53125 l 1.125,0.1875 C 7.347656,-1.394531 6.96875,-0.828125 6.375,-0.421875 5.789062,-0.015625 5.050781,0.1875 4.15625,0.1875 Z m 0,0"
     transform="translate(173.37257,127.65449)"
     style="fill:#4046c0;fill-opacity:1" />
  <path
     d="M 2.375,0 H 1.25 v -9.3125 h 1.125 v 4.25 c 0.519531,-1.03125 1.429688,-1.546875 2.734375,-1.546875 0.9375,0 1.644531,0.265625 2.125,0.796875 0.476563,0.53125 0.71875,1.3125 0.71875,2.34375 V 0 H 6.8125 v -3.359375 c 0,-1.519531 -0.6875,-2.28125 -2.0625,-2.28125 -0.730469,0 -1.308594,0.226563 -1.734375,0.671875 C 2.585938,-4.519531 2.375,-3.914062 2.375,-3.15625 Z m 0,0"
     transform="translate(181.45124,127.65449)"
     style="fill:#4046c0;fill-opacity:1" />
  <path
     d="m 8.75,-0.921875 c 0.113281,0 0.21875,-0.003906 0.3125,-0.015625 C 9.15625,-0.945312 9.25,-0.960938 9.34375,-0.984375 V 0.03125 C 9.226562,0.0625 9.113281,0.0820312 9,0.09375 8.894531,0.101562 8.765625,0.109375 8.609375,0.109375 8.222656,0.109375 7.851562,0.03125 7.5,-0.125 7.144531,-0.28125 6.832031,-0.476562 6.5625,-0.71875 6.15625,-0.40625 5.703125,-0.164062 5.203125,0 4.710938,0.164062 4.191406,0.25 3.640625,0.25 2.929688,0.25 2.328125,0.140625 1.828125,-0.078125 1.335938,-0.296875 0.957031,-0.59375 0.6875,-0.96875 0.425781,-1.351562 0.296875,-1.785156 0.296875,-2.265625 c 0,-0.582031 0.160156,-1.066406 0.484375,-1.453125 C 1.113281,-4.101562 1.601562,-4.460938 2.25,-4.796875 l 0.171875,-0.09375 C 1.984375,-5.347656 1.660156,-5.757812 1.453125,-6.125 c -0.210937,-0.363281 -0.3125,-0.738281 -0.3125,-1.125 0,-0.664062 0.226563,-1.195312 0.6875,-1.59375 C 2.285156,-9.25 2.882812,-9.453125 3.625,-9.453125 c 0.757812,0 1.359375,0.1875 1.796875,0.5625 0.445313,0.375 0.671875,0.882813 0.671875,1.515625 0,0.5 -0.148438,0.953125 -0.4375,1.359375 C 5.375,-5.617188 5.015625,-5.300781 4.578125,-5.0625 L 4.03125,-4.75 6.609375,-2.1875 c 0.570313,-0.75 0.90625,-1.71875 1,-2.90625 l 1.0625,0.15625 c -0.03125,0.679688 -0.167969,1.3125 -0.40625,1.90625 -0.230469,0.585938 -0.53125,1.101562 -0.90625,1.546875 0.21875,0.1875 0.4375,0.328125 0.65625,0.421875 0.21875,0.09375 0.460937,0.140625 0.734375,0.140625 z M 2.328125,-7.3125 c 0,0.199219 0.023437,0.390625 0.078125,0.578125 0.050781,0.179687 0.15625,0.371094 0.3125,0.578125 0.15625,0.210938 0.375,0.460938 0.65625,0.75 l 0.453125,-0.25 c 0.351563,-0.164062 0.628906,-0.390625 0.828125,-0.671875 0.195312,-0.289063 0.296875,-0.628906 0.296875,-1.015625 0,-0.382812 -0.109375,-0.679688 -0.328125,-0.890625 -0.21875,-0.207031 -0.558594,-0.3125 -1.015625,-0.3125 -0.84375,0 -1.273437,0.414063 -1.28125,1.234375 z m -0.84375,4.953125 c 0,0.324219 0.097656,0.609375 0.296875,0.859375 0.207031,0.242188 0.476562,0.429688 0.8125,0.5625 0.34375,0.125 0.71875,0.1875 1.125,0.1875 0.8125,0 1.523438,-0.222656 2.140625,-0.671875 L 3.078125,-4.21875 2.921875,-4.125 C 2.398438,-3.832031 2.03125,-3.5625 1.8125,-3.3125 c -0.21875,0.25 -0.328125,0.570312 -0.328125,0.953125 z m 0,0"
     transform="translate(194.616,127.65449)"
     style="fill:#4046c0;fill-opacity:1" />
  <path
     d="M 2.46875,-7.609375 H 1.140625 V -9.03125 H 2.46875 Z M 2.375,0 H 1.25 v -6.421875 h 1.125 z m 0,0"
     transform="translate(208.35871,127.65449)"
     style="fill:#4046c0;fill-opacity:1" />
  <path
     d="M 2.375,0 H 1.25 v -6.421875 h 1.09375 v 1.40625 c 0.53125,-1.0625 1.460938,-1.59375 2.796875,-1.59375 0.914063,0 1.613281,0.25 2.09375,0.75 0.476563,0.5 0.71875,1.242187 0.71875,2.21875 V 0 H 6.8125 v -3.484375 c 0,-1.4375 -0.679688,-2.15625 -2.03125,-2.15625 -0.730469,0 -1.3125,0.226563 -1.75,0.671875 -0.4375,0.449219 -0.65625,1.054688 -0.65625,1.8125 z m 0,0"
     transform="translate(211.98063,127.65449)"
     style="fill:#4046c0;fill-opacity:1" />
  <path
     d="M 2.375,0 H 1.25 v -6.421875 h 1.09375 v 1.40625 c 0.53125,-1.0625 1.460938,-1.59375 2.796875,-1.59375 0.914063,0 1.613281,0.25 2.09375,0.75 0.476563,0.5 0.71875,1.242187 0.71875,2.21875 V 0 H 6.8125 v -3.484375 c 0,-1.4375 -0.679688,-2.15625 -2.03125,-2.15625 -0.730469,0 -1.3125,0.226563 -1.75,0.671875 -0.4375,0.449219 -0.65625,1.054688 -0.65625,1.8125 z m 0,0"
     transform="translate(220.93267,127.65449)"
     style="fill:#4046c0;fill-opacity:1" />
  <path
     d="M 4.21875,0.1875 C 3.488281,0.1875 2.847656,0.0507812 2.296875,-0.21875 1.742188,-0.5 1.3125,-0.894531 1,-1.40625 0.695312,-1.914062 0.546875,-2.519531 0.546875,-3.21875 0.546875,-3.90625 0.695312,-4.503906 1,-5.015625 1.3125,-5.523438 1.742188,-5.914062 2.296875,-6.1875 2.847656,-6.46875 3.488281,-6.609375 4.21875,-6.609375 c 0.726562,0 1.367188,0.140625 1.921875,0.421875 0.550781,0.273438 0.976563,0.664062 1.28125,1.171875 C 7.722656,-4.503906 7.875,-3.90625 7.875,-3.21875 c 0,0.699219 -0.152344,1.304688 -0.453125,1.8125 C 7.117188,-0.894531 6.691406,-0.5 6.140625,-0.21875 5.585938,0.0507812 4.945312,0.1875 4.21875,0.1875 Z m 0,-0.96875 c 0.757812,0 1.359375,-0.207031 1.796875,-0.625 0.4375,-0.425781 0.65625,-1.03125 0.65625,-1.8125 0,-0.769531 -0.21875,-1.363281 -0.65625,-1.78125 -0.4375,-0.425781 -1.039063,-0.640625 -1.796875,-0.640625 -0.773438,0 -1.375,0.214844 -1.8125,0.640625 C 1.96875,-4.582031 1.75,-3.988281 1.75,-3.21875 c 0,0.78125 0.21875,1.386719 0.65625,1.8125 0.4375,0.417969 1.039062,0.625 1.8125,0.625 z m 0,0"
     transform="translate(229.8847,127.65449)"
     style="fill:#4046c0;fill-opacity:1" />
  <path
     d="m 4.34375,0 h -1.25 L 0.078125,-6.421875 h 1.25 l 2.140625,4.65625 c 0.101562,0.242187 0.179688,0.480469 0.234375,0.71875 H 3.71875 c 0.039062,-0.113281 0.078125,-0.226563 0.109375,-0.34375 0.03125,-0.125 0.070313,-0.25 0.125,-0.375 l 2.140625,-4.65625 h 1.25 z m 0,0"
     transform="translate(238.31015,127.65449)"
     style="fill:#4046c0;fill-opacity:1" />
  <path
     d="m 3.25,0.1875 c -0.792969,0 -1.429688,-0.1679688 -1.90625,-0.5 C 0.875,-0.65625 0.640625,-1.117188 0.640625,-1.703125 c 0,-0.644531 0.265625,-1.132813 0.796875,-1.46875 C 1.675781,-3.316406 1.96875,-3.4375 2.3125,-3.53125 2.664062,-3.625 3.171875,-3.703125 3.828125,-3.765625 L 6.21875,-3.9375 v -0.125 c 0,-1.09375 -0.667969,-1.640625 -2,-1.640625 -0.625,0 -1.121094,0.117187 -1.484375,0.34375 -0.367187,0.230469 -0.578125,0.5625 -0.640625,1 H 0.859375 c 0.070313,-0.675781 0.410156,-1.21875 1.015625,-1.625 0.601562,-0.414063 1.382812,-0.625 2.34375,-0.625 1.0625,0 1.847656,0.21875 2.359375,0.65625 0.519531,0.4375 0.78125,1.109375 0.78125,2.015625 v 1.703125 c 0,0.554687 0.015625,0.992187 0.046875,1.3125 C 7.4375,-0.597656 7.484375,-0.289062 7.546875,0 H 6.375 C 6.332031,-0.1875 6.304688,-0.382812 6.296875,-0.59375 6.285156,-0.800781 6.273438,-1.019531 6.265625,-1.25 6.023438,-0.78125 5.648438,-0.421875 5.140625,-0.171875 4.640625,0.0664062 4.007812,0.1875 3.25,0.1875 Z m 0.3125,-0.890625 c 0.53125,0 0.992188,-0.082031 1.390625,-0.25 0.394531,-0.175781 0.707031,-0.421875 0.9375,-0.734375 0.226563,-0.320312 0.34375,-0.695312 0.34375,-1.125 v -0.328125 l -2.609375,0.25 c -0.65625,0.074219 -1.121094,0.199219 -1.390625,0.375 -0.261719,0.179687 -0.390625,0.4375 -0.390625,0.78125 0,0.324219 0.144531,0.578125 0.4375,0.765625 0.300781,0.179688 0.726562,0.265625 1.28125,0.265625 z m 0,0"
     transform="translate(245.7338,127.65449)"
     style="fill:#4046c0;fill-opacity:1" />
  <path
     d="M 1.75,-5.5 H 0.203125 V -6.421875 H 1.75 v -1.6875 l 1.140625,-0.46875 v 2.15625 h 2.28125 V -5.5 h -2.28125 v 3.3125 c 0,0.449219 0.101563,0.777344 0.3125,0.984375 0.207031,0.199219 0.523437,0.296875 0.953125,0.296875 0.195312,0 0.375,-0.007812 0.53125,-0.03125 0.164062,-0.03125 0.332031,-0.066406 0.5,-0.109375 v 1.015625 c -0.335938,0.1132812 -0.75,0.171875 -1.25,0.171875 -0.59375,0 -1.054688,-0.1015625 -1.375,-0.296875 C 2.25,-0.363281 2.035156,-0.640625 1.921875,-0.984375 1.804688,-1.328125 1.75,-1.703125 1.75,-2.109375 Z m 0,0"
     transform="translate(254.14639,127.65449)"
     style="fill:#4046c0;fill-opacity:1" />
  <path
     d="M 2.46875,-7.609375 H 1.140625 V -9.03125 H 2.46875 Z M 2.375,0 H 1.25 v -6.421875 h 1.125 z m 0,0"
     transform="translate(259.82329,127.65449)"
     style="fill:#4046c0;fill-opacity:1" />
  <path
     d="M 4.21875,0.1875 C 3.488281,0.1875 2.847656,0.0507812 2.296875,-0.21875 1.742188,-0.5 1.3125,-0.894531 1,-1.40625 0.695312,-1.914062 0.546875,-2.519531 0.546875,-3.21875 0.546875,-3.90625 0.695312,-4.503906 1,-5.015625 1.3125,-5.523438 1.742188,-5.914062 2.296875,-6.1875 2.847656,-6.46875 3.488281,-6.609375 4.21875,-6.609375 c 0.726562,0 1.367188,0.140625 1.921875,0.421875 0.550781,0.273438 0.976563,0.664062 1.28125,1.171875 C 7.722656,-4.503906 7.875,-3.90625 7.875,-3.21875 c 0,0.699219 -0.152344,1.304688 -0.453125,1.8125 C 7.117188,-0.894531 6.691406,-0.5 6.140625,-0.21875 5.585938,0.0507812 4.945312,0.1875 4.21875,0.1875 Z m 0,-0.96875 c 0.757812,0 1.359375,-0.207031 1.796875,-0.625 0.4375,-0.425781 0.65625,-1.03125 0.65625,-1.8125 0,-0.769531 -0.21875,-1.363281 -0.65625,-1.78125 -0.4375,-0.425781 -1.039063,-0.640625 -1.796875,-0.640625 -0.773438,0 -1.375,0.214844 -1.8125,0.640625 C 1.96875,-4.582031 1.75,-3.988281 1.75,-3.21875 c 0,0.78125 0.21875,1.386719 0.65625,1.8125 0.4375,0.417969 1.039062,0.625 1.8125,0.625 z m 0,0"
     transform="translate(263.4452,127.65449)"
     style="fill:#4046c0;fill-opacity:1" />
  <path
     d="m 8.265625,-9.125 v 1.0625 h -5.625 v 2.875 h 5.40625 v 1.046875 H 2.640625 V 0 H 1.375 v -9.125 z m 0,0"
     transform="translate(69.223274,127.65449)"
     style="fill:#4046c0;fill-opacity:1" />
  <path
     style="fill:#4046c0;fill-opacity:1"
     d="m 284,309.07955 c -12.59453,-2.55218 -14.9866,-8.4316 -14.99442,-36.8543 L 269,251.9505 l 2.75,-1.04859 c 3.09951,-1.18186 10.85799,-0.34521 11.8619,1.27915 0.36219,0.58603 0.71018,8.77253 0.77331,18.19223 C 284.53143,292.19013 286.16267,296 295.35753,296 304.22637,296 307,289.27162 307,267.75718 307,251.15389 307.07347,251 315,251 c 8.29253,0 8,-1.01288 8,27.7 0,28.45687 -0.21136,29.3 -7.34501,29.3 -3.92632,0 -6.13994,-2.12549 -7.14808,-6.8635 l -0.71568,-3.3635 -4.40557,5.03623 c -2.82117,3.22503 -5.48089,5.24384 -7.39561,5.6135 -6.30424,1.21712 -8.60353,1.34308 -11.99005,0.65682 z m 65.47891,-0.0262 C 339.35089,307.48175 331,300.96059 331,294.62327 c 0,-6.25882 5.61372,-7.6413 11.2152,-2.76194 5.04471,4.39436 9.21322,6.13867 14.67004,6.13867 14.14721,0 15.15613,-8.51948 1.30143,-10.98957 C 336.02128,283.05867 328.6211,276.54826 332.00602,263.97764 337.18614,244.74013 381,244.47607 381,263.68235 c 0,7.77268 -6.77673,8.91604 -13.53472,2.28357 -6.14865,-6.03444 -16.56425,-6.7969 -20.05578,-1.46815 -3.5584,5.43082 -0.0269,8.12938 14.8892,11.37751 35.4821,7.72657 23.47183,38.80959 -12.81979,33.17808 z m 58.82635,-0.0284 c -13.05902,-1.99366 -20.88217,-10.14608 -17.69827,-18.44318 1.03001,-2.68416 6.866,-1.98023 10.60821,1.27954 5.0486,4.39774 9.21414,6.13867 14.68809,6.13867 13.84873,0 14.85285,-8.37185 1.31547,-10.96782 -22.60234,-4.3343 -28.6296,-9.13838 -26.79703,-21.35878 2.99951,-20.00216 46.63251,-22.59902 49.27036,-2.93237 1.15326,8.59818 -6.58902,10.36216 -13.51807,3.07993 -7.30012,-7.67223 -22.89322,-5.80693 -20.81095,2.48947 0.87014,3.46693 4.05074,4.9768 15.93563,7.56485 35.45779,7.72128 23.31797,38.69317 -12.99344,33.14969 z m 114.9509,0.0221 c -3.95173,-0.96475 -5.93935,-2.53373 -7.8221,-6.17456 -2.10485,-4.07033 -2.1263,-72.05309 -0.0233,-73.79844 2.54156,-2.1093 8.33661,-2.46959 11.05658,-0.6874 l 2.50608,1.64205 0.26329,33.73565 L 529.5,297.5 h 3.28647 c 3.53929,0 5.17372,1.65072 5.19822,5.25 0.0181,2.6651 -3.25884,6.24434 -5.73469,6.26365 -0.9625,0.008 -2.65,0.19628 -3.75,0.41949 -1.1,0.22321 -3.45973,0.0495 -5.24384,-0.38609 z m 36.0491,-0.0221 C 548.35022,307.35252 540.8,301.43505 540.8,294.5215 c 0,-6.9391 5.32663,-7.76403 12.33338,-1.91007 7.43999,6.21594 17.23369,7.55739 22.44549,3.07439 C 580.87336,291.13169 577.36823,288.68184 561,285.49617 544.56412,282.29733 538.02888,274.5326 541.90004,262.80288 548.10346,244.00634 591,245.38326 591,264.37891 c 0,6.39383 -8.09244,7.75092 -13.30098,2.23056 -6.94762,-7.36356 -19.60229,-7.82737 -21.37025,-0.78325 -1.30022,5.18049 2.00266,7.25848 16.17057,10.17364 35.18023,7.23862 22.68949,38.50328 -13.19408,33.02511 z m 118.31477,-2.48996 c -6.6319,-4.7151 -13.84431,-6.13719 -23.62003,-4.65723 -23.04255,3.48845 -34.81018,-2.53298 -35.81585,-18.32676 -1.58399,-24.876 26.6149,-29.01691 48.39748,-7.107 16.24335,16.33829 24.90479,39.94964 11.0384,30.09099 z m 15.01945,2.77114 c -3.91445,-3.91446 7.10545,-24.31365 19.04441,-35.25354 C 732.47654,254.99992 758,259.65503 758,282.5 c 0,16.33633 -12.31261,22.96385 -36,19.37778 -9.26771,-1.40306 -17.1,-0.0274 -22.67688,3.98281 -5.3715,3.86257 -5.96214,4.16706 -6.68364,3.44556 z m -559.3183,-1.49488 c -5.14824,-2.48897 -5.33404,-11.9214 -0.28739,-14.58999 3.63914,-1.92431 10.976,-0.92742 13.17675,1.7904 6.3109,7.79364 -3.36641,17.40355 -12.88936,12.79959 z M 187.5,308.32791 c -4.72215,-1.03909 -7.77045,-2.8319 -10.56955,-6.21634 -3.18615,-3.85242 -4.88124,-3.29951 -4.91514,1.60325 C 171.99726,306.32663 169.31134,308 165.13717,308 158.90363,308 159,308.63518 159,267.55102 c 0,-42.11671 -0.44779,-39.85409 7.91217,-39.97941 7.68939,-0.11526 8.08783,0.64794 8.08783,15.49182 0,13.47357 0.53976,15.23056 3.61635,11.77176 9.77817,-10.9929 30.76712,-6.43797 37.0275,8.03553 10.18446,23.54564 -6.35063,50.25267 -28.14385,45.45719 z m 7.20145,-13.28743 c 9.78349,-5.96534 9.40534,-29.14176 -0.51784,-31.73776 -12.05502,-3.15371 -19.25983,2.64946 -19.30059,15.54579 -0.0461,14.59495 9.56252,22.44537 19.81843,16.19197 z M 465,306.92146 c -22.38421,-10.12072 -22.48071,-45.30137 -0.15136,-55.1787 18.93284,-8.3749 40.29422,2.84656 40.29422,21.16718 0,8.05267 -0.10323,8.09006 -22.33399,8.09006 H 464 v 3.86514 c 0,11.48114 17.11321,16.68074 26,7.89973 5.36556,-5.30168 10.04017,-6.15939 12.56533,-2.30551 5.55273,8.47454 -7.48671,18.49672 -24.06533,18.49672 -6.90989,0 -10.04505,-0.47251 -13.5,-2.03462 z m 26.66284,-35.48523 c 2.90932,-7.58155 -13.63523,-13.79894 -22.43777,-8.43203 -3.35288,2.04425 -5.70691,6.29777 -4.79727,8.66825 0.81255,2.11747 26.41707,1.8954 27.23504,-0.23622 z m -264.79768,34.42893 c -2.00829,-2.00829 -2.19761,-50.89109 -0.20959,-54.11516 2.26969,-3.68086 10.94744,0.015 11.96349,5.09531 0.78568,3.92839 1.53767,3.94557 4.76603,0.10889 7.48867,-8.89978 19.2167,-8.12778 18.97084,1.24876 -0.13162,5.01968 -1.06903,5.8923 -7.40589,6.89402 -11.27169,1.78181 -12.99431,4.98859 -13.48811,25.10892 -0.23171,9.4409 -0.79981,15.49629 -1.53718,16.38477 -1.91889,2.31213 -10.49859,1.83549 -13.05959,-0.72551 z m 456.65683,-18.61754 c -2.029,-3.916 -6.81736,-9.57171 -15.02587,-17.74762 -14.68026,-14.62196 -17.11003,-20.30674 -12.94307,-30.28212 5.08907,-12.18285 20.09957,-16.78517 29.8164,-9.14191 l 2.63055,2.06919 2.63055,-2.06919 C 703.00872,220.3393 722,230.67734 722,247.15216 c 0,6.71821 -3.35725,12.12044 -13.12787,21.1243 -8.5282,7.85896 -15.10712,16.04984 -17.64915,21.97354 -1.88841,4.40057 -4.36573,3.43474 -7.70099,-3.00238 z m 18.85162,-20.95622 c 4.70592,-4.45455 9.69701,-9.78022 11.0913,-11.83484 9.56095,-14.08884 -9.97729,-29.87751 -22.04248,-17.81233 l -3.51183,3.51184 -2.1232,-2.69922 c -6.12666,-7.78878 -18.58082,-6.50692 -23.60331,2.42939 -4.57066,8.13239 -2.9796,12.08764 9.90122,24.61376 5.09017,4.95 10.79898,11.41226 12.68623,14.36057 l 3.43138,5.36057 2.80724,-4.91528 c 1.54398,-2.70341 6.65753,-8.55992 11.36345,-13.01446 z M 38.452402,212.59424 c -11.741106,-5.11423 -9.783645,-15.34612 5.686333,-29.72317 L 55.159842,172.62858 43.594081,161.14823 c -14.656004,-14.54778 -16.291087,-21.3924 -6.660686,-27.88233 7.911359,-5.33146 11.45379,-3.60828 30.450981,14.8126 25.269645,24.50304 25.276717,23.80584 -0.494501,48.75342 -18.267609,17.68377 -20.801658,19.08834 -28.437473,15.76232 z m 11.162739,-5.74889 c 13.46099,-10.05379 32.857943,-32.11225 31.832035,-36.1998 -0.781004,-3.11176 -32.51173,-34.61142 -35.015701,-34.7607 -15.173563,-0.90465 -14.338791,7.90258 2.260728,23.85172 l 12.735559,12.23657 -12.713881,12.84937 C 37.738585,195.91476 36,198.11076 36,200.88139 c 0,6.95226 7.747864,10.34613 13.615141,5.96396 z M 82.5,212.15832 c -10.95462,-6.69766 -9.6431,-13.56975 5.462926,-28.62455 L 98.966468,172.56754 87.483234,160.9411 c -11.42231,-11.56476 -12.13294,-12.72326 -11.573272,-18.8674 0.801538,-8.79942 9.630957,-13.45466 18.372157,-9.68656 1.769834,0.76293 10.492611,8.75043 19.383941,17.75 22.72401,23.00065 22.73225,22.19526 -0.46132,45.08638 C 93.633372,214.53966 89.827826,216.63856 82.5,212.15832 Z m 26.66473,-19.91743 c 19.59545,-19.5068 19.79333,-19.93939 12.58527,-27.51283 -26.177038,-27.50398 -33.95335,-32.68068 -39.465608,-26.2723 -4.299603,4.99859 -3.415341,6.73605 10.668027,20.96132 L 105.90484,172.5 94.197728,183.60738 c -15.331608,14.5462 -16.895757,17.86947 -10.997061,23.36494 5.249227,4.8904 7.583491,3.56599 25.964063,-14.73143 z m 223.5579,15.72047 c -17.23582,-2.8985 -26.74137,-22.47071 -20.29199,-41.78178 7.74015,-23.176 47.10656,-22.9817 55.00122,0.27146 8.54772,25.17673 -8.75877,45.87435 -34.70923,41.51032 z m 16.68152,-15.01134 c 14.70648,-12.91247 -0.64254,-38.02862 -17.1056,-27.9905 -9.00149,5.48852 -9.04598,25.48387 -0.0663,29.81205 4.95603,2.3888 13.39633,1.49348 17.17194,-1.82155 z m 48.56188,15.12751 c -6.67626,-1.30818 -5.96715,0.0146 -16.61341,-30.99066 -9.20106,-26.79638 -9.15566,-28.12856 0.91262,-26.77812 5.50316,0.73813 5.24517,0.25189 11.25317,21.20966 7.62519,26.59906 7.56415,26.59679 14.49337,0.53858 5.31204,-19.9766 5.67562,-20.72012 10.58213,-21.64059 10.46836,-1.96387 10.55246,0.22689 1.06609,27.77132 -9.11029,26.45245 -12.79025,32.77113 -17.87788,30.69728 -0.15517,-0.0632 -1.8724,-0.42661 -3.81609,-0.80747 z m 141.74093,-0.5556 c -10.85925,-4.14277 -16.4598,-14.01687 -10.25592,-18.08181 2.98369,-1.95498 5.51988,-1.28256 10.00044,2.65142 8.5812,7.53439 24.54852,7.84825 24.54852,0.48254 0,-3.58124 -2.99778,-5.09143 -14,-7.05275 -19.06351,-3.39838 -26.88338,-13.17724 -20.46412,-25.59071 6.55202,-12.67022 37.16156,-14.76087 45.31131,-3.09479 7.02784,10.06009 -1.82939,18.59044 -10.14817,9.77364 C 556.92927,158.37457 543,158.7368 543,167.17375 c 0,4.02075 2.91804,5.65395 14.79591,8.28111 19.95767,4.41426 25.73113,10.87116 20.01643,22.38592 -4.55245,9.17289 -25.49241,14.49295 -38.10538,9.68115 z m -379.13553,-1.09336 c -2.11458,-2.11458 -2.37448,-50.94808 -0.28634,-53.80377 2.29137,-3.13364 9.13257,-3.29805 12.13889,-0.29173 L 175,154.90909 v 24.89047 c 0,22.84349 -0.15039,25.02657 -1.82874,26.54545 -2.40124,2.17309 -10.45688,2.22652 -12.59983,0.0836 z M 187.08404,206.25 c -2.09723,-1.717 -2.13231,-2.23955 -1.86079,-27.71223 l 0.27675,-25.96222 2.56929,-1.44154 c 4.05719,-2.27633 7.42672,-0.85087 9.3498,3.95537 l 1.64354,4.10761 4.40958,-4.06461 c 2.42527,-2.23553 5.67368,-4.34244 7.21868,-4.68202 1.54501,-0.33957 3.46303,-0.82578 4.26227,-1.08046 15.68206,-4.99711 23.41756,6.42859 23.89388,35.2924 0.40372,24.46471 0.5353,24.13531 -9.18097,22.98456 -6.67517,-0.79058 -6.63318,-0.66474 -6.65076,-19.92898 -0.018,-19.7256 -0.8683,-23.03105 -6.31117,-24.5339 C 204.6203,159.84747 201,165.775 201,188.89645 c 0,13.17639 -0.27413,16.23482 -1.57143,17.53212 -2.16325,2.16326 -9.6158,2.05545 -12.34453,-0.17857 z M 252,207.30602 c -3.74333,-1.33783 -4.00288,-3.12629 -3.88169,-26.74715 0.13842,-26.97694 0.35907,-28.55331 4.1746,-29.82401 4.69705,-1.56428 7.48286,-0.21531 8.82814,4.27485 1.42473,4.75529 1.86488,4.85505 4.98392,1.12961 5.48083,-6.54643 19.33624,-8.94533 26.6642,-4.6166 17.28457,10.21025 14.28605,62.15176 -3.20407,55.50203 L 287,206.0495 v -17.05687 c 0,-22.58319 -1.50948,-26.32596 -10.61739,-26.32596 -9.74522,0 -12.37523,6.17294 -12.26013,28.77601 0.0835,16.4022 -2.21149,19.40544 -12.12248,15.86334 z m 182.42042,-1.78714 c -1.44484,-2.2051 -1.54381,-5.32836 -0.88968,-28.07546 l 0.73602,-25.59434 2.61662,-1.00537 c 2.98852,-1.14826 8.61955,-0.50113 10.70585,1.23034 1.90301,1.57936 2.10042,52.8363 0.21077,54.72595 -2.37608,2.37608 -11.55945,1.49676 -13.37958,-1.28112 z m 26.23457,0.65238 c -1.75318,-1.93724 -2.26256,-33.05945 -0.78811,-48.1517 0.97157,-9.94473 9.98567,-11.40937 12.41024,-2.01644 1.24133,4.80897 1.21906,4.80832 5.45499,0.15732 7.82559,-8.5924 18.26789,-7.8835 18.26789,1.24017 0,5.30137 -0.97088,6.1697 -7.94799,7.10849 -10.58696,1.4245 -13.03786,6.62929 -13.04643,27.70572 -0.005,12.5328 -0.17228,13.80403 -1.93984,14.75 -3.24187,1.73499 -10.54505,1.26802 -12.41075,-0.79356 z M 504.75,206.9199 c -3.07039,-1.78834 -2.6317,-53.18892 0.47251,-55.3632 2.95109,-2.06702 8.04104,-1.97515 10.70921,0.1933 2.15281,1.74961 3.6008,51.96132 1.59217,55.21135 -0.82214,1.33025 -10.47258,1.29894 -12.77389,-0.0414 z M 162,142.70599 c -3.4026,-1.72106 -5.34044,-6.07775 -4.55815,-10.24772 1.83521,-9.7825 17.27191,-9.83145 19.10494,-0.0606 1.52914,8.15102 -6.94278,14.15448 -14.54679,10.3083 z m 272.92308,-1.62907 c -8.31606,-8.31605 1.46016,-20.06706 12.11209,-14.55873 2.64802,1.36934 3.39653,2.72072 4.14404,7.48181 1.294,8.24179 -10.12161,13.21145 -16.25613,7.07692 z M 506,142.70599 c -3.4026,-1.72106 -5.34044,-6.07775 -4.55815,-10.24772 1.83521,-9.7825 17.27191,-9.83145 19.10494,-0.0606 1.52914,8.15102 -6.94278,14.15448 -14.54679,10.3083 z"
     transform="matrix(0.434755,0,0,0.435185,-0.073271,-30.017964)" />
  <path
     d="M 2.375,0 H 1.25 v -6.421875 h 1.09375 v 1.40625 c 0.53125,-1.0625 1.460938,-1.59375 2.796875,-1.59375 0.914063,0 1.613281,0.25 2.09375,0.75 0.476563,0.5 0.71875,1.242187 0.71875,2.21875 V 0 H 6.8125 v -3.484375 c 0,-1.4375 -0.679688,-2.15625 -2.03125,-2.15625 -0.730469,0 -1.3125,0.226563 -1.75,0.671875 -0.4375,0.449219 -0.65625,1.054688 -0.65625,1.8125 z m 0,0"
     transform="translate(271.87066,127.65449)"
     style="fill:#4046c0;fill-opacity:1" />
  <path
     d="m 1.375,-9.125 h 4.34375 c 0.65625,0 1.222656,0.117188 1.703125,0.34375 0.476563,0.230469 0.847656,0.554688 1.109375,0.96875 0.257812,0.40625 0.390625,0.890625 0.390625,1.453125 0,0.5625 -0.136719,1.058594 -0.40625,1.484375 -0.273437,0.417969 -0.65625,0.742188 -1.15625,0.96875 -0.5,0.230469 -1.089844,0.34375 -1.765625,0.34375 H 2.640625 V 0 H 1.375 Z m 1.265625,4.515625 H 5.53125 c 0.632812,0 1.140625,-0.15625 1.515625,-0.46875 0.375,-0.3125 0.5625,-0.738281 0.5625,-1.28125 0,-0.53125 -0.1875,-0.945313 -0.5625,-1.25 -0.367187,-0.300781 -0.867187,-0.453125 -1.5,-0.453125 h -2.90625 z m 0,0"
     transform="translate(69.223274,144.90449)"
     style="fill:#4046c0;fill-opacity:1" />
  <path
     d="m 2.296875,-6.421875 v 1.625 c 0.175781,-0.53125 0.460937,-0.960937 0.859375,-1.296875 0.40625,-0.332031 0.894531,-0.5 1.46875,-0.5 0.09375,0 0.175781,0.00781 0.25,0.015625 0.082031,0 0.160156,0.011719 0.234375,0.03125 v 1.09375 c -0.0625,-0.00781 -0.125,-0.015625 -0.1875,-0.015625 -0.0625,0 -0.132813,0 -0.203125,0 -0.40625,0 -0.746094,0.054688 -1.015625,0.15625 C 3.441406,-5.207031 3.21875,-5.054688 3.03125,-4.859375 2.75,-4.566406 2.566406,-4.222656 2.484375,-3.828125 2.410156,-3.429688 2.375,-3.023438 2.375,-2.609375 V 0 H 1.25 v -6.421875 z m 0,0"
     transform="translate(78.522088,144.90449)"
     style="fill:#4046c0;fill-opacity:1" />
  <path
     d="M 4.21875,0.1875 C 3.488281,0.1875 2.847656,0.0507812 2.296875,-0.21875 1.742188,-0.5 1.3125,-0.894531 1,-1.40625 0.695312,-1.914062 0.546875,-2.519531 0.546875,-3.21875 0.546875,-3.90625 0.695312,-4.503906 1,-5.015625 1.3125,-5.523438 1.742188,-5.914062 2.296875,-6.1875 2.847656,-6.46875 3.488281,-6.609375 4.21875,-6.609375 c 0.726562,0 1.367188,0.140625 1.921875,0.421875 0.550781,0.273438 0.976563,0.664062 1.28125,1.171875 C 7.722656,-4.503906 7.875,-3.90625 7.875,-3.21875 c 0,0.699219 -0.152344,1.304688 -0.453125,1.8125 C 7.117188,-0.894531 6.691406,-0.5 6.140625,-0.21875 5.585938,0.0507812 4.945312,0.1875 4.21875,0.1875 Z m 0,-0.96875 c 0.757812,0 1.359375,-0.207031 1.796875,-0.625 0.4375,-0.425781 0.65625,-1.03125 0.65625,-1.8125 0,-0.769531 -0.21875,-1.363281 -0.65625,-1.78125 -0.4375,-0.425781 -1.039063,-0.640625 -1.796875,-0.640625 -0.773438,0 -1.375,0.214844 -1.8125,0.640625 C 1.96875,-4.582031 1.75,-3.988281 1.75,-3.21875 c 0,0.78125 0.21875,1.386719 0.65625,1.8125 0.4375,0.417969 1.039062,0.625 1.8125,0.625 z m 0,0"
     transform="translate(83.890738,144.90449)"
     style="fill:#4046c0;fill-opacity:1" />
  <path
     d="m 1.25,0 v -6.421875 h 1.09375 v 1.28125 c 0.40625,-0.976563 1.179688,-1.46875 2.328125,-1.46875 0.582031,0 1.070313,0.132813 1.46875,0.390625 0.40625,0.25 0.691406,0.621094 0.859375,1.109375 0.5,-1 1.328125,-1.5 2.484375,-1.5 0.8125,0 1.425781,0.242187 1.84375,0.71875 0.425781,0.480469 0.640625,1.167969 0.640625,2.0625 V 0 h -1.125 v -3.71875 c 0,-1.28125 -0.5625,-1.921875 -1.6875,-1.921875 -0.605469,0 -1.085938,0.1875 -1.4375,0.5625 C 7.363281,-4.703125 7.1875,-4.1875 7.1875,-3.53125 V 0 H 6.03125 v -3.734375 c 0,-1.269531 -0.558594,-1.90625 -1.671875,-1.90625 -0.59375,0 -1.074219,0.203125 -1.4375,0.609375 C 2.554688,-4.632812 2.375,-4.101562 2.375,-3.4375 V 0 Z m 0,0"
     transform="translate(92.316193,144.90449)"
     style="fill:#4046c0;fill-opacity:1" />
  <path
     d="M 4.21875,0.1875 C 3.488281,0.1875 2.847656,0.0507812 2.296875,-0.21875 1.742188,-0.5 1.3125,-0.894531 1,-1.40625 0.695312,-1.914062 0.546875,-2.519531 0.546875,-3.21875 0.546875,-3.90625 0.695312,-4.503906 1,-5.015625 1.3125,-5.523438 1.742188,-5.914062 2.296875,-6.1875 2.847656,-6.46875 3.488281,-6.609375 4.21875,-6.609375 c 0.726562,0 1.367188,0.140625 1.921875,0.421875 0.550781,0.273438 0.976563,0.664062 1.28125,1.171875 C 7.722656,-4.503906 7.875,-3.90625 7.875,-3.21875 c 0,0.699219 -0.152344,1.304688 -0.453125,1.8125 C 7.117188,-0.894531 6.691406,-0.5 6.140625,-0.21875 5.585938,0.0507812 4.945312,0.1875 4.21875,0.1875 Z m 0,-0.96875 c 0.757812,0 1.359375,-0.207031 1.796875,-0.625 0.4375,-0.425781 0.65625,-1.03125 0.65625,-1.8125 0,-0.769531 -0.21875,-1.363281 -0.65625,-1.78125 -0.4375,-0.425781 -1.039063,-0.640625 -1.796875,-0.640625 -0.773438,0 -1.375,0.214844 -1.8125,0.640625 C 1.96875,-4.582031 1.75,-3.988281 1.75,-3.21875 c 0,0.78125 0.21875,1.386719 0.65625,1.8125 0.4375,0.417969 1.039062,0.625 1.8125,0.625 z m 0,0"
     transform="translate(105.2883,144.90449)"
     style="fill:#4046c0;fill-opacity:1" />
  <path
     d="M 1.75,-5.5 H 0.203125 V -6.421875 H 1.75 v -1.6875 l 1.140625,-0.46875 v 2.15625 h 2.28125 V -5.5 h -2.28125 v 3.3125 c 0,0.449219 0.101563,0.777344 0.3125,0.984375 0.207031,0.199219 0.523437,0.296875 0.953125,0.296875 0.195312,0 0.375,-0.007812 0.53125,-0.03125 0.164062,-0.03125 0.332031,-0.066406 0.5,-0.109375 v 1.015625 c -0.335938,0.1132812 -0.75,0.171875 -1.25,0.171875 -0.59375,0 -1.054688,-0.1015625 -1.375,-0.296875 C 2.25,-0.363281 2.035156,-0.640625 1.921875,-0.984375 1.804688,-1.328125 1.75,-1.703125 1.75,-2.109375 Z m 0,0"
     transform="translate(113.71375,144.90449)"
     style="fill:#4046c0;fill-opacity:1" />
  <path
     d="M 2.46875,-7.609375 H 1.140625 V -9.03125 H 2.46875 Z M 2.375,0 H 1.25 v -6.421875 h 1.125 z m 0,0"
     transform="translate(119.39064,144.90449)"
     style="fill:#4046c0;fill-opacity:1" />
  <path
     d="M 2.375,0 H 1.25 v -6.421875 h 1.09375 v 1.40625 c 0.53125,-1.0625 1.460938,-1.59375 2.796875,-1.59375 0.914063,0 1.613281,0.25 2.09375,0.75 0.476563,0.5 0.71875,1.242187 0.71875,2.21875 V 0 H 6.8125 v -3.484375 c 0,-1.4375 -0.679688,-2.15625 -2.03125,-2.15625 -0.730469,0 -1.3125,0.226563 -1.75,0.671875 -0.4375,0.449219 -0.65625,1.054688 -0.65625,1.8125 z m 0,0"
     transform="translate(123.01256,144.90449)"
     style="fill:#4046c0;fill-opacity:1" />
  <path
     d="m 7.375,-6.5 c -0.542969,0 -0.890625,0.183594 -1.046875,0.546875 0.476563,0.40625 0.71875,0.929687 0.71875,1.5625 0,0.648437 -0.265625,1.183594 -0.796875,1.609375 -0.523438,0.417969 -1.242188,0.625 -2.15625,0.625 -0.636719,0 -1.171875,-0.097656 -1.609375,-0.296875 -0.1875,0.0625 -0.335937,0.148437 -0.4375,0.25 -0.105469,0.105469 -0.15625,0.234375 -0.15625,0.390625 0,0.1875 0.082031,0.34375 0.25,0.46875 0.164063,0.117188 0.445313,0.171875 0.84375,0.171875 h 2.53125 c 0.757813,0 1.328125,0.15625 1.703125,0.46875 0.382812,0.304687 0.578125,0.7382812 0.578125,1.3125 0,0.65625 -0.304687,1.164063 -0.90625,1.53125 -0.59375,0.375 -1.542969,0.5625 -2.84375,0.5625 C 3.203125,2.703125 2.519531,2.625 2,2.46875 1.488281,2.320312 1.117188,2.113281 0.890625,1.84375 0.660156,1.570312 0.546875,1.265625 0.546875,0.921875 c 0,-0.304687 0.085937,-0.574219 0.265625,-0.8125 0.175781,-0.226563 0.445312,-0.394531 0.8125,-0.5 C 1.351562,-0.503906 1.15625,-0.65625 1.03125,-0.84375 c -0.125,-0.1875 -0.1875,-0.398438 -0.1875,-0.640625 0,-0.332031 0.097656,-0.601563 0.296875,-0.8125 0.195313,-0.21875 0.457031,-0.378906 0.78125,-0.484375 C 1.390625,-3.1875 1.125,-3.722656 1.125,-4.390625 c 0,-0.65625 0.265625,-1.1875 0.796875,-1.59375 0.53125,-0.414063 1.253906,-0.625 2.171875,-0.625 0.632812,0 1.1875,0.105469 1.65625,0.3125 0.09375,-0.34375 0.28125,-0.625 0.5625,-0.84375 0.28125,-0.21875 0.648438,-0.328125 1.109375,-0.328125 0.144531,0 0.300781,0.015625 0.46875,0.046875 v 0.96875 C 7.753906,-6.484375 7.582031,-6.5 7.375,-6.5 Z M 4.09375,-3 c 0.570312,0 1.023438,-0.125 1.359375,-0.375 0.332031,-0.257812 0.5,-0.597656 0.5,-1.015625 0,-0.414063 -0.167969,-0.75 -0.5,-1 -0.335937,-0.25 -0.789063,-0.375 -1.359375,-0.375 -0.574219,0 -1.027344,0.125 -1.359375,0.375 -0.324219,0.242187 -0.484375,0.574219 -0.484375,1 0,0.40625 0.160156,0.742187 0.484375,1 C 3.066406,-3.128906 3.519531,-3 4.09375,-3 Z m 1.203125,2.8125 H 2.9375 c -0.210938,0 -0.414062,-0.007812 -0.609375,-0.03125 C 2.085938,-0.113281 1.910156,0.0195312 1.796875,0.1875 1.679688,0.351562 1.625,0.535156 1.625,0.734375 c 0,0.382813 0.210938,0.65625 0.640625,0.8125 0.4375,0.15625 1.050781,0.234375 1.84375,0.234375 0.957031,0 1.625,-0.101562 2,-0.296875 0.375,-0.199219 0.5625,-0.464844 0.5625,-0.796875 0,-0.585938 -0.460937,-0.875 -1.375,-0.875 z m 0,0"
     transform="translate(131.9646,144.90449)"
     style="fill:#4046c0;fill-opacity:1" />
  <path
     d="m 4.125,0.1875 c -0.9375,0 -1.699219,-0.1679688 -2.28125,-0.5 C 1.257812,-0.644531 0.859375,-1.117188 0.640625,-1.734375 l 1.0625,-0.328125 c 0.164063,0.429688 0.457031,0.757812 0.875,0.984375 0.425781,0.230469 0.972656,0.34375 1.640625,0.34375 0.582031,0 1.019531,-0.085937 1.3125,-0.265625 C 5.832031,-1.1875 5.984375,-1.441406 5.984375,-1.765625 5.984375,-2.046875 5.894531,-2.25 5.71875,-2.375 5.539062,-2.5 5.257812,-2.585938 4.875,-2.640625 l -2.03125,-0.21875 c -0.625,-0.09375 -1.109375,-0.285156 -1.453125,-0.578125 -0.335937,-0.289062 -0.5,-0.695312 -0.5,-1.21875 0,-0.570312 0.257813,-1.039062 0.78125,-1.40625 0.519531,-0.363281 1.234375,-0.546875 2.140625,-0.546875 0.894531,0 1.625,0.148437 2.1875,0.4375 0.5625,0.292969 0.925781,0.703125 1.09375,1.234375 l -1.0625,0.359375 c -0.167969,-0.363281 -0.433594,-0.644531 -0.796875,-0.84375 -0.367187,-0.195313 -0.867187,-0.296875 -1.5,-0.296875 -1.167969,0 -1.75,0.339844 -1.75,1.015625 0,0.273437 0.097656,0.476563 0.296875,0.609375 0.195312,0.136719 0.484375,0.226562 0.859375,0.265625 L 5.15625,-3.59375 c 0.6875,0.09375 1.179688,0.289062 1.484375,0.578125 0.3125,0.28125 0.46875,0.671875 0.46875,1.171875 C 7.109375,-1.25 6.863281,-0.757812 6.375,-0.375 5.894531,0 5.144531,0.1875 4.125,0.1875 Z m 0,0"
     transform="translate(144.4358,144.90449)"
     style="fill:#4046c0;fill-opacity:1" />
  <path
     d="M 4.15625,0.1875 C 3.425781,0.1875 2.789062,0.0507812 2.25,-0.21875 1.707031,-0.5 1.285156,-0.894531 0.984375,-1.40625 c -0.292969,-0.519531 -0.4375,-1.125 -0.4375,-1.8125 0,-0.695312 0.144531,-1.296875 0.4375,-1.796875 C 1.285156,-5.523438 1.707031,-5.914062 2.25,-6.1875 c 0.539062,-0.28125 1.1875,-0.421875 1.9375,-0.421875 0.9375,0 1.6875,0.203125 2.25,0.609375 0.570312,0.398438 0.9375,0.984375 1.09375,1.765625 L 6.328125,-4.09375 C 6.109375,-5.125 5.382812,-5.640625 4.15625,-5.640625 3.394531,-5.640625 2.800781,-5.425781 2.375,-5 1.957031,-4.570312 1.75,-3.976562 1.75,-3.21875 c 0,0.773438 0.210938,1.371094 0.640625,1.796875 0.4375,0.429687 1.03125,0.640625 1.78125,0.640625 1.175781,0 1.914063,-0.507812 2.21875,-1.53125 l 1.125,0.1875 C 7.347656,-1.394531 6.96875,-0.828125 6.375,-0.421875 5.789062,-0.015625 5.050781,0.1875 4.15625,0.1875 Z m 0,0"
     transform="translate(152.2319,144.90449)"
     style="fill:#4046c0;fill-opacity:1" />
  <path
     d="M 2.46875,-7.609375 H 1.140625 V -9.03125 H 2.46875 Z M 2.375,0 H 1.25 v -6.421875 h 1.125 z m 0,0"
     transform="translate(160.31057,144.90449)"
     style="fill:#4046c0;fill-opacity:1" />
  <path
     d="M 7.625,-3.515625 V -2.875 H 1.703125 c 0.00781,0.648438 0.238281,1.15625 0.6875,1.53125 0.445313,0.375 1.054687,0.5625 1.828125,0.5625 1.15625,0 1.953125,-0.425781 2.390625,-1.28125 l 0.9375,0.4375 c -0.625,1.210938 -1.75,1.8125 -3.375,1.8125 -1.125,0 -2.011719,-0.2851562 -2.65625,-0.859375 -0.648437,-0.582031 -0.96875,-1.40625 -0.96875,-2.46875 0,-0.738281 0.144531,-1.367187 0.4375,-1.890625 0.289063,-0.519531 0.707031,-0.910156 1.25,-1.171875 0.539063,-0.269531 1.171875,-0.40625 1.890625,-0.40625 1.09375,0 1.945312,0.265625 2.5625,0.796875 0.625,0.53125 0.9375,1.296875 0.9375,2.296875 z m -5.921875,-0.25 h 4.75 v -0.09375 c 0,-0.613281 -0.21875,-1.082031 -0.65625,-1.40625 -0.4375,-0.320313 -1,-0.484375 -1.6875,-0.484375 -0.71875,0 -1.292969,0.179688 -1.71875,0.53125 -0.429687,0.355469 -0.65625,0.839844 -0.6875,1.453125 z m 0,0"
     transform="translate(163.93249,144.90449)"
     style="fill:#4046c0;fill-opacity:1" />
  <path
     d="M 2.375,0 H 1.25 v -6.421875 h 1.09375 v 1.40625 c 0.53125,-1.0625 1.460938,-1.59375 2.796875,-1.59375 0.914063,0 1.613281,0.25 2.09375,0.75 0.476563,0.5 0.71875,1.242187 0.71875,2.21875 V 0 H 6.8125 v -3.484375 c 0,-1.4375 -0.679688,-2.15625 -2.03125,-2.15625 -0.730469,0 -1.3125,0.226563 -1.75,0.671875 -0.4375,0.449219 -0.65625,1.054688 -0.65625,1.8125 z m 0,0"
     transform="translate(172.19097,144.90449)"
     style="fill:#4046c0;fill-opacity:1" />
  <path
     d="M 4.15625,0.1875 C 3.425781,0.1875 2.789062,0.0507812 2.25,-0.21875 1.707031,-0.5 1.285156,-0.894531 0.984375,-1.40625 c -0.292969,-0.519531 -0.4375,-1.125 -0.4375,-1.8125 0,-0.695312 0.144531,-1.296875 0.4375,-1.796875 C 1.285156,-5.523438 1.707031,-5.914062 2.25,-6.1875 c 0.539062,-0.28125 1.1875,-0.421875 1.9375,-0.421875 0.9375,0 1.6875,0.203125 2.25,0.609375 0.570312,0.398438 0.9375,0.984375 1.09375,1.765625 L 6.328125,-4.09375 C 6.109375,-5.125 5.382812,-5.640625 4.15625,-5.640625 3.394531,-5.640625 2.800781,-5.425781 2.375,-5 1.957031,-4.570312 1.75,-3.976562 1.75,-3.21875 c 0,0.773438 0.210938,1.371094 0.640625,1.796875 0.4375,0.429687 1.03125,0.640625 1.78125,0.640625 1.175781,0 1.914063,-0.507812 2.21875,-1.53125 l 1.125,0.1875 C 7.347656,-1.394531 6.96875,-0.828125 6.375,-0.421875 5.789062,-0.015625 5.050781,0.1875 4.15625,0.1875 Z m 0,0"
     transform="translate(181.143,144.90449)"
     style="fill:#4046c0;fill-opacity:1" />
  <path
     d="M 7.625,-3.515625 V -2.875 H 1.703125 c 0.00781,0.648438 0.238281,1.15625 0.6875,1.53125 0.445313,0.375 1.054687,0.5625 1.828125,0.5625 1.15625,0 1.953125,-0.425781 2.390625,-1.28125 l 0.9375,0.4375 c -0.625,1.210938 -1.75,1.8125 -3.375,1.8125 -1.125,0 -2.011719,-0.2851562 -2.65625,-0.859375 -0.648437,-0.582031 -0.96875,-1.40625 -0.96875,-2.46875 0,-0.738281 0.144531,-1.367187 0.4375,-1.890625 0.289063,-0.519531 0.707031,-0.910156 1.25,-1.171875 0.539063,-0.269531 1.171875,-0.40625 1.890625,-0.40625 1.09375,0 1.945312,0.265625 2.5625,0.796875 0.625,0.53125 0.9375,1.296875 0.9375,2.296875 z m -5.921875,-0.25 h 4.75 v -0.09375 c 0,-0.613281 -0.21875,-1.082031 -0.65625,-1.40625 -0.4375,-0.320313 -1,-0.484375 -1.6875,-0.484375 -0.71875,0 -1.292969,0.179688 -1.71875,0.53125 -0.429687,0.355469 -0.65625,0.839844 -0.6875,1.453125 z m 0,0"
     transform="translate(189.22167,144.90449)"
     style="fill:#4046c0;fill-opacity:1" />
</svg>
